<mxfile host="65bd71144e">
    <diagram id="M2xDNIhOBhWgQVgV__6K" name="Page-1">
        <mxGraphModel dx="5249" dy="2177" grid="1" gridSize="10" guides="1" tooltips="1" connect="1" arrows="1" fold="1" page="1" pageScale="1" pageWidth="850" pageHeight="1100" math="0" shadow="0">
            <root>
                <mxCell id="0"/>
                <mxCell id="1" parent="0"/>
                <mxCell id="122" style="edgeStyle=none;html=1;exitX=1;exitY=0.5;exitDx=0;exitDy=0;entryX=0;entryY=0.5;entryDx=0;entryDy=0;" parent="1" source="119" target="121" edge="1">
                    <mxGeometry relative="1" as="geometry"/>
                </mxCell>
                <mxCell id="46" style="edgeStyle=none;html=1;exitX=0.5;exitY=1;exitDx=0;exitDy=0;entryX=0.5;entryY=0;entryDx=0;entryDy=0;" parent="1" source="3" target="6" edge="1">
                    <mxGeometry relative="1" as="geometry"/>
                </mxCell>
                <mxCell id="3" value="Mulai" style="ellipse;whiteSpace=wrap;html=1;" parent="1" vertex="1">
                    <mxGeometry x="375" y="-1080" width="100" height="50" as="geometry"/>
                </mxCell>
                <mxCell id="47" style="edgeStyle=none;html=1;exitX=0.5;exitY=1;exitDx=0;exitDy=0;entryX=0.5;entryY=0;entryDx=0;entryDy=0;" parent="1" source="6" target="8" edge="1">
                    <mxGeometry relative="1" as="geometry"/>
                </mxCell>
                <mxCell id="6" value="Login" style="shape=process;whiteSpace=wrap;html=1;backgroundOutline=1;" parent="1" vertex="1">
                    <mxGeometry x="375" y="-990" width="100" height="55" as="geometry"/>
                </mxCell>
                <mxCell id="48" style="edgeStyle=none;html=1;exitX=0.5;exitY=1;exitDx=0;exitDy=0;entryX=0.5;entryY=0;entryDx=0;entryDy=0;" parent="1" source="8" target="10" edge="1">
                    <mxGeometry relative="1" as="geometry"/>
                </mxCell>
                <mxCell id="8" value="Menampilkan menu pilihan jenis kulit:&lt;br&gt;1. kering&lt;br&gt;2. normal&lt;br&gt;3. berminyak&lt;br&gt;4. kombinasi&lt;br&gt;5. semsitif&lt;br&gt;6. Tidak diketahui" style="shape=parallelogram;perimeter=parallelogramPerimeter;whiteSpace=wrap;html=1;fixedSize=1;" parent="1" vertex="1">
                    <mxGeometry x="300" y="-870" width="250" height="110" as="geometry"/>
                </mxCell>
                <mxCell id="102" style="edgeStyle=none;html=1;exitX=0.5;exitY=1;exitDx=0;exitDy=0;entryX=0.5;entryY=0;entryDx=0;entryDy=0;" parent="1" source="10" target="12" edge="1">
                    <mxGeometry relative="1" as="geometry">
                        <Array as="points">
                            <mxPoint x="425" y="-640"/>
                        </Array>
                        <mxPoint x="270" y="-550" as="targetPoint"/>
                    </mxGeometry>
                </mxCell>
                <mxCell id="10" value="input jenis kulit" style="shape=parallelogram;perimeter=parallelogramPerimeter;whiteSpace=wrap;html=1;fixedSize=1;" parent="1" vertex="1">
                    <mxGeometry x="365.5" y="-690" width="120" height="60" as="geometry"/>
                </mxCell>
                <mxCell id="50" style="edgeStyle=none;html=1;exitX=0.5;exitY=1;exitDx=0;exitDy=0;entryX=0.5;entryY=0;entryDx=0;entryDy=0;" parent="1" source="12" target="13" edge="1">
                    <mxGeometry relative="1" as="geometry"/>
                </mxCell>
                <mxCell id="12" value="Menampilkan masalah kulit :&lt;br&gt;1. Normal&lt;br&gt;2. Berjerawat&amp;nbsp;" style="shape=parallelogram;perimeter=parallelogramPerimeter;whiteSpace=wrap;html=1;fixedSize=1;" parent="1" vertex="1">
                    <mxGeometry x="320" y="-540" width="210" height="100" as="geometry"/>
                </mxCell>
                <mxCell id="30" style="edgeStyle=none;html=1;exitX=0.5;exitY=1;exitDx=0;exitDy=0;entryX=0.5;entryY=0;entryDx=0;entryDy=0;" parent="1" source="13" target="184" edge="1">
                    <mxGeometry relative="1" as="geometry">
                        <Array as="points">
                            <mxPoint x="425" y="-230"/>
                            <mxPoint x="-1120" y="-230"/>
                        </Array>
                        <mxPoint x="-1120" y="-200" as="targetPoint"/>
                    </mxGeometry>
                </mxCell>
                <mxCell id="13" value="Input masalah kulit" style="shape=parallelogram;perimeter=parallelogramPerimeter;whiteSpace=wrap;html=1;fixedSize=1;" parent="1" vertex="1">
                    <mxGeometry x="355.5" y="-370" width="140" height="80" as="geometry"/>
                </mxCell>
                <mxCell id="54" style="edgeStyle=none;html=1;exitX=0.5;exitY=1;exitDx=0;exitDy=0;entryX=0.5;entryY=0;entryDx=0;entryDy=0;" parent="1" source="184" target="51" edge="1">
                    <mxGeometry relative="1" as="geometry">
                        <mxPoint x="-1120" y="-110" as="sourcePoint"/>
                    </mxGeometry>
                </mxCell>
                <mxCell id="87" style="edgeStyle=none;html=1;exitX=1;exitY=0.5;exitDx=0;exitDy=0;entryX=0;entryY=0.5;entryDx=0;entryDy=0;" parent="1" source="184" target="16" edge="1">
                    <mxGeometry relative="1" as="geometry">
                        <mxPoint x="-1075" y="-155" as="sourcePoint"/>
                    </mxGeometry>
                </mxCell>
                <mxCell id="55" style="edgeStyle=none;html=1;exitX=0.5;exitY=1;exitDx=0;exitDy=0;entryX=0.5;entryY=0;entryDx=0;entryDy=0;" parent="1" source="16" target="52" edge="1">
                    <mxGeometry relative="1" as="geometry"/>
                </mxCell>
                <mxCell id="88" style="edgeStyle=none;html=1;exitX=1;exitY=0.5;exitDx=0;exitDy=0;entryX=0;entryY=0.5;entryDx=0;entryDy=0;" parent="1" source="16" target="187" edge="1">
                    <mxGeometry relative="1" as="geometry">
                        <mxPoint x="-580" y="-150" as="targetPoint"/>
                    </mxGeometry>
                </mxCell>
                <mxCell id="16" value="Pilihan :&lt;br&gt;kering, &lt;br&gt;berjerawat" style="rhombus;whiteSpace=wrap;html=1;" parent="1" vertex="1">
                    <mxGeometry x="-870" y="-210" width="110" height="110" as="geometry"/>
                </mxCell>
                <mxCell id="56" style="edgeStyle=none;html=1;exitX=0.5;exitY=1;exitDx=0;exitDy=0;entryX=0.5;entryY=0;entryDx=0;entryDy=0;" parent="1" source="187" target="53" edge="1">
                    <mxGeometry relative="1" as="geometry">
                        <mxPoint x="-500" y="-120" as="sourcePoint"/>
                    </mxGeometry>
                </mxCell>
                <mxCell id="89" style="edgeStyle=none;html=1;exitX=1;exitY=0.5;exitDx=0;exitDy=0;entryX=0;entryY=0.5;entryDx=0;entryDy=0;" parent="1" source="187" target="188" edge="1">
                    <mxGeometry relative="1" as="geometry">
                        <mxPoint x="-460" y="-160" as="sourcePoint"/>
                        <mxPoint x="-290" y="-160" as="targetPoint"/>
                    </mxGeometry>
                </mxCell>
                <mxCell id="58" style="edgeStyle=none;html=1;entryX=0.5;entryY=0;entryDx=0;entryDy=0;exitX=0.5;exitY=1;exitDx=0;exitDy=0;" parent="1" source="188" target="57" edge="1">
                    <mxGeometry relative="1" as="geometry">
                        <mxPoint x="-180" y="-100" as="sourcePoint"/>
                    </mxGeometry>
                </mxCell>
                <mxCell id="90" style="edgeStyle=none;html=1;exitX=1;exitY=0.5;exitDx=0;exitDy=0;entryX=0;entryY=0.5;entryDx=0;entryDy=0;" parent="1" source="188" target="189" edge="1">
                    <mxGeometry relative="1" as="geometry">
                        <mxPoint x="-150" y="-160" as="sourcePoint"/>
                        <mxPoint x="20" y="-155" as="targetPoint"/>
                    </mxGeometry>
                </mxCell>
                <mxCell id="60" style="edgeStyle=none;html=1;entryX=0.5;entryY=0;entryDx=0;entryDy=0;exitX=0.5;exitY=1;exitDx=0;exitDy=0;" parent="1" source="189" target="59" edge="1">
                    <mxGeometry relative="1" as="geometry">
                        <mxPoint x="120" y="-80" as="sourcePoint"/>
                    </mxGeometry>
                </mxCell>
                <mxCell id="91" style="edgeStyle=none;html=1;exitX=1;exitY=0.5;exitDx=0;exitDy=0;entryX=0;entryY=0.5;entryDx=0;entryDy=0;" parent="1" source="189" target="190" edge="1">
                    <mxGeometry relative="1" as="geometry">
                        <mxPoint x="220" y="-160" as="sourcePoint"/>
                        <mxPoint x="320" y="-160" as="targetPoint"/>
                    </mxGeometry>
                </mxCell>
                <mxCell id="64" style="edgeStyle=none;html=1;entryX=0.5;entryY=0;entryDx=0;entryDy=0;exitX=0.5;exitY=1;exitDx=0;exitDy=0;" parent="1" source="191" target="63" edge="1">
                    <mxGeometry relative="1" as="geometry">
                        <mxPoint x="720" y="-70" as="sourcePoint"/>
                    </mxGeometry>
                </mxCell>
                <mxCell id="93" style="edgeStyle=none;html=1;exitX=1;exitY=0.5;exitDx=0;exitDy=0;entryX=0;entryY=0.5;entryDx=0;entryDy=0;" parent="1" source="191" target="192" edge="1">
                    <mxGeometry relative="1" as="geometry">
                        <mxPoint x="830" y="-160" as="sourcePoint"/>
                        <mxPoint x="910" y="-155" as="targetPoint"/>
                    </mxGeometry>
                </mxCell>
                <mxCell id="72" style="edgeStyle=none;html=1;entryX=0.5;entryY=0;entryDx=0;entryDy=0;exitX=0.5;exitY=1;exitDx=0;exitDy=0;" parent="1" source="192" target="67" edge="1">
                    <mxGeometry relative="1" as="geometry">
                        <mxPoint x="1000" y="-60" as="sourcePoint"/>
                    </mxGeometry>
                </mxCell>
                <mxCell id="94" style="edgeStyle=none;html=1;exitX=1;exitY=0.5;exitDx=0;exitDy=0;entryX=0;entryY=0.5;entryDx=0;entryDy=0;" parent="1" source="192" target="193" edge="1">
                    <mxGeometry relative="1" as="geometry">
                        <mxPoint x="1130" y="-160" as="sourcePoint"/>
                        <mxPoint x="1180" y="-155" as="targetPoint"/>
                        <Array as="points"/>
                    </mxGeometry>
                </mxCell>
                <mxCell id="62" style="edgeStyle=none;html=1;entryX=0.5;entryY=0;entryDx=0;entryDy=0;exitX=0.5;exitY=1;exitDx=0;exitDy=0;" parent="1" source="190" target="61" edge="1">
                    <mxGeometry relative="1" as="geometry">
                        <mxPoint x="425" y="-70" as="sourcePoint"/>
                    </mxGeometry>
                </mxCell>
                <mxCell id="92" style="edgeStyle=none;html=1;exitX=1;exitY=0.5;exitDx=0;exitDy=0;entryX=0;entryY=0.5;entryDx=0;entryDy=0;" parent="1" source="190" target="191" edge="1">
                    <mxGeometry relative="1" as="geometry">
                        <mxPoint x="550" y="-160" as="sourcePoint"/>
                        <mxPoint x="630" y="-155" as="targetPoint"/>
                    </mxGeometry>
                </mxCell>
                <mxCell id="76" style="edgeStyle=none;html=1;exitX=0.5;exitY=1;exitDx=0;exitDy=0;entryX=0.5;entryY=0;entryDx=0;entryDy=0;" parent="1" source="51" target="75" edge="1">
                    <mxGeometry relative="1" as="geometry">
                        <Array as="points">
                            <mxPoint x="-1120" y="80"/>
                            <mxPoint x="426" y="80"/>
                        </Array>
                    </mxGeometry>
                </mxCell>
                <mxCell id="51" value="Menampilkan rekomendasi pilihan treatment untuk kulit kering,&lt;br&gt;normal" style="shape=parallelogram;perimeter=parallelogramPerimeter;whiteSpace=wrap;html=1;fixedSize=1;" parent="1" vertex="1">
                    <mxGeometry x="-1230" y="-60" width="220" height="100" as="geometry"/>
                </mxCell>
                <mxCell id="77" style="edgeStyle=none;html=1;exitX=0.5;exitY=1;exitDx=0;exitDy=0;entryX=0.5;entryY=0;entryDx=0;entryDy=0;" parent="1" source="52" target="75" edge="1">
                    <mxGeometry relative="1" as="geometry">
                        <Array as="points">
                            <mxPoint x="-815" y="80"/>
                            <mxPoint x="426" y="80"/>
                        </Array>
                    </mxGeometry>
                </mxCell>
                <mxCell id="52" value="Menampilkan rekomendasi pilihan treatment untuk kulit kering,&lt;br&gt;berjerawat" style="shape=parallelogram;perimeter=parallelogramPerimeter;whiteSpace=wrap;html=1;fixedSize=1;" parent="1" vertex="1">
                    <mxGeometry x="-925" y="-60" width="220" height="100" as="geometry"/>
                </mxCell>
                <mxCell id="78" style="edgeStyle=none;html=1;exitX=0.5;exitY=1;exitDx=0;exitDy=0;entryX=0.5;entryY=0;entryDx=0;entryDy=0;" parent="1" source="53" target="75" edge="1">
                    <mxGeometry relative="1" as="geometry">
                        <Array as="points">
                            <mxPoint x="-500" y="80"/>
                            <mxPoint x="426" y="80"/>
                        </Array>
                    </mxGeometry>
                </mxCell>
                <mxCell id="53" value="Menampilkan rekomendasi pilihan treatment untuk kulit normal,&lt;br&gt;normal" style="shape=parallelogram;perimeter=parallelogramPerimeter;whiteSpace=wrap;html=1;fixedSize=1;" parent="1" vertex="1">
                    <mxGeometry x="-610" y="-60" width="220" height="100" as="geometry"/>
                </mxCell>
                <mxCell id="79" style="edgeStyle=none;html=1;exitX=0.5;exitY=1;exitDx=0;exitDy=0;entryX=0.5;entryY=0;entryDx=0;entryDy=0;" parent="1" source="57" target="75" edge="1">
                    <mxGeometry relative="1" as="geometry">
                        <Array as="points">
                            <mxPoint x="-190" y="80"/>
                            <mxPoint x="426" y="80"/>
                        </Array>
                    </mxGeometry>
                </mxCell>
                <mxCell id="57" value="Menampilkan rekomendasi pilihan treatment untuk kulit normal,&amp;nbsp;&lt;br&gt;berjerawat" style="shape=parallelogram;perimeter=parallelogramPerimeter;whiteSpace=wrap;html=1;fixedSize=1;" parent="1" vertex="1">
                    <mxGeometry x="-300" y="-60" width="220" height="100" as="geometry"/>
                </mxCell>
                <mxCell id="80" style="edgeStyle=none;html=1;exitX=0.5;exitY=1;exitDx=0;exitDy=0;entryX=0.5;entryY=0;entryDx=0;entryDy=0;" parent="1" source="59" target="75" edge="1">
                    <mxGeometry relative="1" as="geometry">
                        <Array as="points">
                            <mxPoint x="120" y="80"/>
                            <mxPoint x="426" y="80"/>
                        </Array>
                    </mxGeometry>
                </mxCell>
                <mxCell id="59" value="Menampilkan rekomendasi pilihan treatment untuk kulit berminyak,&amp;nbsp;&lt;br&gt;normal" style="shape=parallelogram;perimeter=parallelogramPerimeter;whiteSpace=wrap;html=1;fixedSize=1;" parent="1" vertex="1">
                    <mxGeometry x="10" y="-60" width="220" height="100" as="geometry"/>
                </mxCell>
                <mxCell id="81" style="edgeStyle=none;html=1;exitX=0.5;exitY=1;exitDx=0;exitDy=0;entryX=0.5;entryY=0;entryDx=0;entryDy=0;" parent="1" source="61" target="75" edge="1">
                    <mxGeometry relative="1" as="geometry"/>
                </mxCell>
                <mxCell id="61" value="Menampilkan rekomendasi pilihan treatment untuk kulit berminyak,&amp;nbsp;&lt;br&gt;berjerawat" style="shape=parallelogram;perimeter=parallelogramPerimeter;whiteSpace=wrap;html=1;fixedSize=1;" parent="1" vertex="1">
                    <mxGeometry x="315.5" y="-60" width="220" height="100" as="geometry"/>
                </mxCell>
                <mxCell id="82" style="edgeStyle=none;html=1;exitX=0.5;exitY=1;exitDx=0;exitDy=0;entryX=0.5;entryY=0;entryDx=0;entryDy=0;" parent="1" source="63" target="75" edge="1">
                    <mxGeometry relative="1" as="geometry">
                        <Array as="points">
                            <mxPoint x="720" y="80"/>
                            <mxPoint x="426" y="80"/>
                        </Array>
                    </mxGeometry>
                </mxCell>
                <mxCell id="63" value="Menampilkan rekomendasi pilihan treatment untuk kulit kombinasi,&amp;nbsp;&lt;br&gt;normal" style="shape=parallelogram;perimeter=parallelogramPerimeter;whiteSpace=wrap;html=1;fixedSize=1;" parent="1" vertex="1">
                    <mxGeometry x="610" y="-60" width="220" height="100" as="geometry"/>
                </mxCell>
                <mxCell id="73" style="edgeStyle=none;html=1;entryX=0.5;entryY=0;entryDx=0;entryDy=0;exitX=0.5;exitY=1;exitDx=0;exitDy=0;" parent="1" source="193" target="68" edge="1">
                    <mxGeometry relative="1" as="geometry">
                        <mxPoint x="1290" y="-70" as="sourcePoint"/>
                    </mxGeometry>
                </mxCell>
                <mxCell id="95" style="edgeStyle=none;html=1;exitX=1;exitY=0.5;exitDx=0;exitDy=0;entryX=0;entryY=0.5;entryDx=0;entryDy=0;" parent="1" source="193" target="194" edge="1">
                    <mxGeometry relative="1" as="geometry">
                        <mxPoint x="1440" y="-160" as="sourcePoint"/>
                        <mxPoint x="1490" y="-160" as="targetPoint"/>
                        <Array as="points"/>
                    </mxGeometry>
                </mxCell>
                <mxCell id="74" style="edgeStyle=none;html=1;entryX=0.5;entryY=0;entryDx=0;entryDy=0;exitX=0.5;exitY=1;exitDx=0;exitDy=0;" parent="1" source="194" target="69" edge="1">
                    <mxGeometry relative="1" as="geometry">
                        <mxPoint x="1590" y="-70" as="sourcePoint"/>
                    </mxGeometry>
                </mxCell>
                <mxCell id="183" style="edgeStyle=none;html=1;entryX=0;entryY=0.5;entryDx=0;entryDy=0;exitX=1;exitY=0.5;exitDx=0;exitDy=0;" parent="1" source="194" target="145" edge="1">
                    <mxGeometry relative="1" as="geometry">
                        <mxPoint x="1690" y="-160" as="sourcePoint"/>
                    </mxGeometry>
                </mxCell>
                <mxCell id="83" style="edgeStyle=none;html=1;exitX=0.5;exitY=1;exitDx=0;exitDy=0;entryX=0.5;entryY=0;entryDx=0;entryDy=0;" parent="1" source="67" target="75" edge="1">
                    <mxGeometry relative="1" as="geometry">
                        <Array as="points">
                            <mxPoint x="1000" y="80"/>
                            <mxPoint x="426" y="80"/>
                        </Array>
                    </mxGeometry>
                </mxCell>
                <mxCell id="67" value="Menampilkan rekomendasi pilihan treatment untuk kulit kombinasi,&lt;br&gt;berjerawat" style="shape=parallelogram;perimeter=parallelogramPerimeter;whiteSpace=wrap;html=1;fixedSize=1;" parent="1" vertex="1">
                    <mxGeometry x="890" y="-60" width="220" height="100" as="geometry"/>
                </mxCell>
                <mxCell id="84" style="edgeStyle=none;html=1;exitX=0.5;exitY=1;exitDx=0;exitDy=0;entryX=0.5;entryY=0;entryDx=0;entryDy=0;" parent="1" source="68" target="75" edge="1">
                    <mxGeometry relative="1" as="geometry">
                        <Array as="points">
                            <mxPoint x="1290" y="80"/>
                            <mxPoint x="426" y="80"/>
                        </Array>
                    </mxGeometry>
                </mxCell>
                <mxCell id="68" value="Menampilkan rekomendasi pilihan treatment untuk kulit sensitif,&amp;nbsp;&lt;br&gt;normal" style="shape=parallelogram;perimeter=parallelogramPerimeter;whiteSpace=wrap;html=1;fixedSize=1;" parent="1" vertex="1">
                    <mxGeometry x="1180" y="-60" width="220" height="100" as="geometry"/>
                </mxCell>
                <mxCell id="85" style="edgeStyle=none;html=1;exitX=0.5;exitY=1;exitDx=0;exitDy=0;entryX=0.5;entryY=0;entryDx=0;entryDy=0;" parent="1" source="69" target="75" edge="1">
                    <mxGeometry relative="1" as="geometry">
                        <Array as="points">
                            <mxPoint x="1590" y="80"/>
                            <mxPoint x="426" y="80"/>
                        </Array>
                    </mxGeometry>
                </mxCell>
                <mxCell id="69" value="Menampilkan rekomendasi pilihan treatment untuk kulit sensitif,&lt;br&gt;berjerawat" style="shape=parallelogram;perimeter=parallelogramPerimeter;whiteSpace=wrap;html=1;fixedSize=1;" parent="1" vertex="1">
                    <mxGeometry x="1480" y="-60" width="220" height="100" as="geometry"/>
                </mxCell>
                <mxCell id="120" style="edgeStyle=none;html=1;exitX=0.5;exitY=1;exitDx=0;exitDy=0;entryX=0.5;entryY=0;entryDx=0;entryDy=0;" parent="1" source="75" target="119" edge="1">
                    <mxGeometry relative="1" as="geometry"/>
                </mxCell>
                <mxCell id="75" value="Input pilihan treatment" style="shape=parallelogram;perimeter=parallelogramPerimeter;whiteSpace=wrap;html=1;fixedSize=1;" parent="1" vertex="1">
                    <mxGeometry x="343" y="180" width="165" height="80" as="geometry"/>
                </mxCell>
                <mxCell id="124" style="edgeStyle=none;html=1;exitX=0.5;exitY=1;exitDx=0;exitDy=0;entryX=0.5;entryY=0;entryDx=0;entryDy=0;" parent="1" source="119" target="123" edge="1">
                    <mxGeometry relative="1" as="geometry"/>
                </mxCell>
                <mxCell id="119" value="Apakah perlu treatment tambahan?" style="rhombus;whiteSpace=wrap;html=1;" parent="1" vertex="1">
                    <mxGeometry x="343" y="330" width="165" height="140" as="geometry"/>
                </mxCell>
                <mxCell id="137" style="edgeStyle=none;html=1;exitX=0.5;exitY=1;exitDx=0;exitDy=0;entryX=1;entryY=0.5;entryDx=0;entryDy=0;" parent="1" source="182" target="123" edge="1">
                    <mxGeometry relative="1" as="geometry">
                        <Array as="points">
                            <mxPoint x="1030" y="600"/>
                        </Array>
                    </mxGeometry>
                </mxCell>
                <mxCell id="121" value="Menampilkan menu pilihan treatment tambahan:&lt;br&gt;1. Treatment Muka Segar&lt;br&gt;2. Treatment Pembersihan Mendalam&lt;br&gt;3. Treatment Anti Aging&lt;br&gt;4. Treatment Pencerah Kulit&lt;br&gt;5. Treatment Relaksasi Wajah" style="shape=parallelogram;perimeter=parallelogramPerimeter;whiteSpace=wrap;html=1;fixedSize=1;" parent="1" vertex="1">
                    <mxGeometry x="630" y="340" width="255" height="120" as="geometry"/>
                </mxCell>
                <mxCell id="126" style="edgeStyle=none;html=1;exitX=0.5;exitY=1;exitDx=0;exitDy=0;entryX=0.5;entryY=0;entryDx=0;entryDy=0;" parent="1" source="123" target="125" edge="1">
                    <mxGeometry relative="1" as="geometry"/>
                </mxCell>
                <mxCell id="123" value="Menampilkan menu pilihan hari &lt;br&gt;konsultasi dengan dokter:&lt;br&gt;1. Senin&lt;br&gt;2. Selasa&lt;br&gt;3. Rabu&lt;br&gt;4. Kamis&lt;br&gt;5. Jumat" style="shape=parallelogram;perimeter=parallelogramPerimeter;whiteSpace=wrap;html=1;fixedSize=1;" parent="1" vertex="1">
                    <mxGeometry x="309" y="540" width="232" height="120" as="geometry"/>
                </mxCell>
                <mxCell id="128" style="edgeStyle=none;html=1;exitX=0.5;exitY=1;exitDx=0;exitDy=0;entryX=0.5;entryY=0;entryDx=0;entryDy=0;" parent="1" source="125" target="127" edge="1">
                    <mxGeometry relative="1" as="geometry"/>
                </mxCell>
                <mxCell id="125" value="Input hari&amp;nbsp;&amp;nbsp;" style="shape=parallelogram;perimeter=parallelogramPerimeter;whiteSpace=wrap;html=1;fixedSize=1;" parent="1" vertex="1">
                    <mxGeometry x="365" y="720" width="120" height="60" as="geometry"/>
                </mxCell>
                <mxCell id="130" style="edgeStyle=none;html=1;exitX=0.5;exitY=1;exitDx=0;exitDy=0;entryX=0.5;entryY=0;entryDx=0;entryDy=0;" parent="1" source="127" target="129" edge="1">
                    <mxGeometry relative="1" as="geometry"/>
                </mxCell>
                <mxCell id="127" value="Menampilkan menu pilihan jam konsultasi dengan dokter:&lt;br&gt;1. 10.00&lt;br&gt;2. 13.00&lt;br&gt;3. 17.00&lt;br&gt;4. 20.00" style="shape=parallelogram;perimeter=parallelogramPerimeter;whiteSpace=wrap;html=1;fixedSize=1;" parent="1" vertex="1">
                    <mxGeometry x="318" y="830" width="215" height="90" as="geometry"/>
                </mxCell>
                <mxCell id="129" value="Input jam&amp;nbsp;" style="shape=parallelogram;perimeter=parallelogramPerimeter;whiteSpace=wrap;html=1;fixedSize=1;" parent="1" vertex="1">
                    <mxGeometry x="365" y="990" width="120" height="60" as="geometry"/>
                </mxCell>
                <mxCell id="135" style="edgeStyle=none;html=1;exitX=0.5;exitY=1;exitDx=0;exitDy=0;entryX=0.5;entryY=0;entryDx=0;entryDy=0;" parent="1" source="129" target="134" edge="1">
                    <mxGeometry relative="1" as="geometry">
                        <mxPoint x="425.5" y="1220" as="sourcePoint"/>
                    </mxGeometry>
                </mxCell>
                <mxCell id="138" style="edgeStyle=none;html=1;exitX=0.5;exitY=1;exitDx=0;exitDy=0;entryX=0.5;entryY=0;entryDx=0;entryDy=0;" parent="1" source="134" target="139" edge="1">
                    <mxGeometry relative="1" as="geometry">
                        <mxPoint x="425" y="1430" as="targetPoint"/>
                    </mxGeometry>
                </mxCell>
                <mxCell id="134" value="Konfirmasi jadwal appointment" style="rounded=0;whiteSpace=wrap;html=1;" parent="1" vertex="1">
                    <mxGeometry x="365" y="1140" width="120" height="60" as="geometry"/>
                </mxCell>
                <mxCell id="142" style="edgeStyle=none;html=1;exitX=0.5;exitY=1;exitDx=0;exitDy=0;entryX=0.5;entryY=0;entryDx=0;entryDy=0;" parent="1" source="139" target="141" edge="1">
                    <mxGeometry relative="1" as="geometry"/>
                </mxCell>
                <mxCell id="139" value="Menampilkan detail &lt;br&gt;treatment dan total biaya" style="shape=parallelogram;perimeter=parallelogramPerimeter;whiteSpace=wrap;html=1;fixedSize=1;" parent="1" vertex="1">
                    <mxGeometry x="333" y="1280" width="185" height="80" as="geometry"/>
                </mxCell>
                <mxCell id="141" value="Selesai" style="ellipse;whiteSpace=wrap;html=1;" parent="1" vertex="1">
                    <mxGeometry x="373" y="1460" width="105" height="70" as="geometry"/>
                </mxCell>
                <mxCell id="143" value="TIDAK" style="text;html=1;strokeColor=none;fillColor=none;align=center;verticalAlign=middle;whiteSpace=wrap;rounded=0;" parent="1" vertex="1">
                    <mxGeometry x="-765" y="-180" width="60" height="30" as="geometry"/>
                </mxCell>
                <mxCell id="144" value="TIDAK" style="text;html=1;strokeColor=none;fillColor=none;align=center;verticalAlign=middle;whiteSpace=wrap;rounded=0;" parent="1" vertex="1">
                    <mxGeometry x="170" y="-180" width="60" height="30" as="geometry"/>
                </mxCell>
                <mxCell id="147" style="edgeStyle=none;html=1;exitX=1;exitY=0.5;exitDx=0;exitDy=0;entryX=1;entryY=0.5;entryDx=0;entryDy=0;" parent="1" source="145" target="123" edge="1">
                    <mxGeometry relative="1" as="geometry">
                        <mxPoint x="1760" y="560" as="targetPoint"/>
                        <Array as="points">
                            <mxPoint x="2050" y="-155"/>
                            <mxPoint x="2050" y="600"/>
                        </Array>
                    </mxGeometry>
                </mxCell>
                <mxCell id="145" value="Cetak &quot;Silahkan konsultasi &lt;br&gt;untuk jenis kulit Anda&lt;br&gt;terlebih dahulu dengan dokter&quot;" style="shape=parallelogram;perimeter=parallelogramPerimeter;whiteSpace=wrap;html=1;fixedSize=1;" parent="1" vertex="1">
                    <mxGeometry x="1750" y="-205" width="200" height="100" as="geometry"/>
                </mxCell>
                <mxCell id="148" value="TIDAK" style="text;html=1;strokeColor=none;fillColor=none;align=center;verticalAlign=middle;whiteSpace=wrap;rounded=0;" parent="1" vertex="1">
                    <mxGeometry x="-150" y="-180" width="60" height="30" as="geometry"/>
                </mxCell>
                <mxCell id="155" value="TIDAK" style="text;html=1;strokeColor=none;fillColor=none;align=center;verticalAlign=middle;whiteSpace=wrap;rounded=0;" parent="1" vertex="1">
                    <mxGeometry x="-1080" y="-180" width="60" height="30" as="geometry"/>
                </mxCell>
                <mxCell id="156" value="TIDAK" style="text;html=1;strokeColor=none;fillColor=none;align=center;verticalAlign=middle;whiteSpace=wrap;rounded=0;" parent="1" vertex="1">
                    <mxGeometry x="775" y="-180" width="60" height="30" as="geometry"/>
                </mxCell>
                <mxCell id="157" value="TIDAK" style="text;html=1;strokeColor=none;fillColor=none;align=center;verticalAlign=middle;whiteSpace=wrap;rounded=0;" parent="1" vertex="1">
                    <mxGeometry x="473" y="-180" width="60" height="30" as="geometry"/>
                </mxCell>
                <mxCell id="158" value="TIDAK" style="text;html=1;strokeColor=none;fillColor=none;align=center;verticalAlign=middle;whiteSpace=wrap;rounded=0;" parent="1" vertex="1">
                    <mxGeometry x="1050" y="-180" width="60" height="30" as="geometry"/>
                </mxCell>
                <mxCell id="159" value="TIDAK" style="text;html=1;strokeColor=none;fillColor=none;align=center;verticalAlign=middle;whiteSpace=wrap;rounded=0;" parent="1" vertex="1">
                    <mxGeometry x="-460" y="-180" width="60" height="30" as="geometry"/>
                </mxCell>
                <mxCell id="160" value="TIDAK" style="text;html=1;strokeColor=none;fillColor=none;align=center;verticalAlign=middle;whiteSpace=wrap;rounded=0;" parent="1" vertex="1">
                    <mxGeometry x="1340" y="-180" width="60" height="30" as="geometry"/>
                </mxCell>
                <mxCell id="161" value="TIDAK" style="text;html=1;strokeColor=none;fillColor=none;align=center;verticalAlign=middle;whiteSpace=wrap;rounded=0;" parent="1" vertex="1">
                    <mxGeometry x="373" y="470" width="60" height="30" as="geometry"/>
                </mxCell>
                <mxCell id="164" value="YA" style="text;html=1;strokeColor=none;fillColor=none;align=center;verticalAlign=middle;whiteSpace=wrap;rounded=0;" parent="1" vertex="1">
                    <mxGeometry x="508" y="370" width="60" height="30" as="geometry"/>
                </mxCell>
                <mxCell id="165" value="YA" style="text;html=1;strokeColor=none;fillColor=none;align=center;verticalAlign=middle;whiteSpace=wrap;rounded=0;" parent="1" vertex="1">
                    <mxGeometry x="365" y="-110" width="60" height="30" as="geometry"/>
                </mxCell>
                <mxCell id="166" value="YA" style="text;html=1;strokeColor=none;fillColor=none;align=center;verticalAlign=middle;whiteSpace=wrap;rounded=0;" parent="1" vertex="1">
                    <mxGeometry x="-250" y="-120" width="60" height="30" as="geometry"/>
                </mxCell>
                <mxCell id="167" value="YA" style="text;html=1;strokeColor=none;fillColor=none;align=center;verticalAlign=middle;whiteSpace=wrap;rounded=0;" parent="1" vertex="1">
                    <mxGeometry x="65" y="-110" width="60" height="30" as="geometry"/>
                </mxCell>
                <mxCell id="168" value="YA" style="text;html=1;strokeColor=none;fillColor=none;align=center;verticalAlign=middle;whiteSpace=wrap;rounded=0;" parent="1" vertex="1">
                    <mxGeometry x="-870" y="-110" width="60" height="30" as="geometry"/>
                </mxCell>
                <mxCell id="169" value="YA" style="text;html=1;strokeColor=none;fillColor=none;align=center;verticalAlign=middle;whiteSpace=wrap;rounded=0;" parent="1" vertex="1">
                    <mxGeometry x="-560" y="-110" width="60" height="30" as="geometry"/>
                </mxCell>
                <mxCell id="170" value="YA" style="text;html=1;strokeColor=none;fillColor=none;align=center;verticalAlign=middle;whiteSpace=wrap;rounded=0;" parent="1" vertex="1">
                    <mxGeometry x="-1170" y="-110" width="60" height="30" as="geometry"/>
                </mxCell>
                <mxCell id="171" value="YA" style="text;html=1;strokeColor=none;fillColor=none;align=center;verticalAlign=middle;whiteSpace=wrap;rounded=0;" parent="1" vertex="1">
                    <mxGeometry x="1235" y="-110" width="60" height="30" as="geometry"/>
                </mxCell>
                <mxCell id="172" value="YA" style="text;html=1;strokeColor=none;fillColor=none;align=center;verticalAlign=middle;whiteSpace=wrap;rounded=0;" parent="1" vertex="1">
                    <mxGeometry x="940" y="-110" width="60" height="30" as="geometry"/>
                </mxCell>
                <mxCell id="173" value="YA" style="text;html=1;strokeColor=none;fillColor=none;align=center;verticalAlign=middle;whiteSpace=wrap;rounded=0;" parent="1" vertex="1">
                    <mxGeometry x="660" y="-110" width="60" height="30" as="geometry"/>
                </mxCell>
                <mxCell id="175" value="YA" style="text;html=1;strokeColor=none;fillColor=none;align=center;verticalAlign=middle;whiteSpace=wrap;rounded=0;" parent="1" vertex="1">
                    <mxGeometry x="1535" y="-110" width="60" height="30" as="geometry"/>
                </mxCell>
                <mxCell id="181" value="" style="endArrow=classic;html=1;exitX=1;exitY=0.5;exitDx=0;exitDy=0;entryX=0;entryY=0.5;entryDx=0;entryDy=0;" parent="1" source="121" target="182" edge="1">
                    <mxGeometry width="50" height="50" relative="1" as="geometry">
                        <mxPoint x="580" y="460" as="sourcePoint"/>
                        <mxPoint x="940" y="400" as="targetPoint"/>
                    </mxGeometry>
                </mxCell>
                <mxCell id="182" value="Input treatment tambahan" style="shape=parallelogram;perimeter=parallelogramPerimeter;whiteSpace=wrap;html=1;fixedSize=1;" parent="1" vertex="1">
                    <mxGeometry x="940" y="350" width="180" height="100" as="geometry"/>
                </mxCell>
                <mxCell id="184" value="Pilihan :&lt;br&gt;kering, &lt;br&gt;normal" style="rhombus;whiteSpace=wrap;html=1;" vertex="1" parent="1">
                    <mxGeometry x="-1175" y="-210" width="110" height="110" as="geometry"/>
                </mxCell>
                <mxCell id="187" value="Pilihan :&lt;br&gt;normal, &lt;br&gt;normal" style="rhombus;whiteSpace=wrap;html=1;" vertex="1" parent="1">
                    <mxGeometry x="-555" y="-210" width="110" height="110" as="geometry"/>
                </mxCell>
                <mxCell id="188" value="Pilihan :&lt;br&gt;normal, &lt;br&gt;berjerawat" style="rhombus;whiteSpace=wrap;html=1;" vertex="1" parent="1">
                    <mxGeometry x="-245" y="-210" width="110" height="110" as="geometry"/>
                </mxCell>
                <mxCell id="189" value="Pilihan :&lt;br&gt;berminyak,&lt;br&gt;normal" style="rhombus;whiteSpace=wrap;html=1;" vertex="1" parent="1">
                    <mxGeometry x="65" y="-210" width="110" height="110" as="geometry"/>
                </mxCell>
                <mxCell id="190" value="Pilihan :&lt;br&gt;berminyak,&lt;br&gt;berjerawat" style="rhombus;whiteSpace=wrap;html=1;" vertex="1" parent="1">
                    <mxGeometry x="370" y="-210" width="110" height="110" as="geometry"/>
                </mxCell>
                <mxCell id="191" value="Pilihan :&lt;br&gt;kombinasi,&lt;br&gt;normal" style="rhombus;whiteSpace=wrap;html=1;" vertex="1" parent="1">
                    <mxGeometry x="665" y="-210" width="110" height="110" as="geometry"/>
                </mxCell>
                <mxCell id="192" value="Pilihan :&lt;br&gt;kombinasi,&lt;br&gt;berjerawat" style="rhombus;whiteSpace=wrap;html=1;" vertex="1" parent="1">
                    <mxGeometry x="945" y="-210" width="110" height="110" as="geometry"/>
                </mxCell>
                <mxCell id="193" value="Pilihan :&lt;br&gt;sensitif, &lt;br&gt;normal" style="rhombus;whiteSpace=wrap;html=1;" vertex="1" parent="1">
                    <mxGeometry x="1235" y="-210" width="110" height="110" as="geometry"/>
                </mxCell>
                <mxCell id="194" value="Pilihan :&lt;br&gt;sensitif, &lt;br&gt;berjerawat" style="rhombus;whiteSpace=wrap;html=1;" vertex="1" parent="1">
                    <mxGeometry x="1535" y="-210" width="110" height="110" as="geometry"/>
                </mxCell>
                <mxCell id="195" value="TIDAK" style="text;html=1;strokeColor=none;fillColor=none;align=center;verticalAlign=middle;whiteSpace=wrap;rounded=0;" vertex="1" parent="1">
                    <mxGeometry x="1640" y="-180" width="60" height="30" as="geometry"/>
                </mxCell>
            </root>
        </mxGraphModel>
    </diagram>
</mxfile>